<svg width="53" height="18" viewBox="0 0 53 18" fill="none" xmlns="http://www.w3.org/2000/svg">
<path d="M42.48 17.96V1.8C42.4774 1.32169 42.2855 0.863877 41.9464 0.526596C41.6072 0.189315 41.1483 -7.2999e-06 40.67 2.11102e-10H40.07C39.5944 0.00264257 39.1391 0.193452 38.8037 0.530731C38.4683 0.868011 38.28 1.32433 38.28 1.8V17.96H42.48Z" fill="white"/>
<path d="M46.43 17.9599V4.46994C46.4313 4.28047 46.395 4.09262 46.3231 3.91731C46.2512 3.742 46.1452 3.58272 46.0112 3.44874C45.8772 3.31476 45.7179 3.20874 45.5426 3.13685C45.3673 3.06495 45.1795 3.02861 44.99 3.02994H44.51C44.1281 3.02994 43.7618 3.18166 43.4918 3.45171C43.2217 3.72176 43.07 4.08803 43.07 4.46994V17.9599H46.43Z" fill="white"/>
<path d="M49.72 17.96V6.6C49.72 6.295 49.5988 6.00249 49.3832 5.78682C49.1675 5.57116 48.875 5.44999 48.57 5.44999H48.19C48.0381 5.44867 47.8875 5.47745 47.7469 5.53465C47.6062 5.59185 47.4782 5.67635 47.3704 5.78327C47.2625 5.89019 47.1769 6.01741 47.1185 6.15759C47.0601 6.29777 47.03 6.44813 47.03 6.6V17.96H49.72Z" fill="white"/>
<path d="M14.13 17.96V1.8C14.1274 1.32342 13.9369 0.867104 13.5999 0.530106C13.2629 0.193108 12.8066 0.00262584 12.33 0H11.73C11.2534 0.00262584 10.7971 0.193108 10.4601 0.530106C10.1231 0.867104 9.93262 1.32342 9.92999 1.8V17.96H14.13Z" fill="white"/>
<path d="M9.33002 17.96V4.46997C9.33002 4.08806 9.17829 3.72179 8.90823 3.45174C8.63818 3.18168 8.27193 3.02997 7.89001 3.02997H7.41C7.02809 3.02997 6.66184 3.18168 6.39178 3.45174C6.12173 3.72179 5.97 4.08806 5.97 4.46997V17.96H9.33002Z" fill="white"/>
<path d="M5.37 17.96V6.59995C5.37 6.29495 5.24884 6.00245 5.03317 5.78678C4.81751 5.57111 4.525 5.44995 4.22 5.44995H3.83002C3.52502 5.44995 3.23251 5.57111 3.01685 5.78678C2.80118 6.00245 2.67999 6.29495 2.67999 6.59995V17.96H5.37Z" fill="white"/>
<path d="M37.56 13.15H14.84V17.15H37.56V13.15Z" fill="white"/>
<path d="M2.17999 13.15H0V17.15H2.17999V13.15Z" fill="white"/>
<path d="M52.27 13.15H50.09V17.15H52.27V13.15Z" fill="white"/>
</svg>
