<svg width="17" height="16" viewBox="0 0 17 16" fill="none" xmlns="http://www.w3.org/2000/svg">
<path d="M17 2.41887C16.3678 2.7125 15.6942 2.90712 14.9919 3.00162C15.7144 2.54487 16.2658 1.82712 16.5251 0.962C15.8514 1.38725 15.1077 1.68763 14.3151 1.85525C13.6754 1.13413 12.7638 0.6875 11.7693 0.6875C9.83981 0.6875 8.28644 2.34575 8.28644 4.37863C8.28644 4.67113 8.30981 4.95237 8.36719 5.22012C5.46975 5.0705 2.90594 3.60013 1.18362 1.36025C0.882937 1.91263 0.706563 2.54488 0.706563 3.2255C0.706563 4.5035 1.32812 5.63637 2.25463 6.29225C1.69469 6.281 1.14538 6.10888 0.68 5.83775C0.68 5.849 0.68 5.86363 0.68 5.87825C0.68 7.6715 1.88806 9.161 3.47225 9.50412C3.18856 9.58625 2.87937 9.62562 2.5585 9.62562C2.33538 9.62562 2.11012 9.61213 1.89869 9.56262C2.35025 11.024 3.63163 12.0984 5.15525 12.1332C3.9695 13.1154 2.46394 13.7071 0.834063 13.7071C0.54825 13.7071 0.274125 13.6936 0 13.6565C1.54381 14.7106 3.37344 15.3125 5.3465 15.3125C11.7597 15.3125 15.266 9.6875 15.266 4.81175C15.266 4.64862 15.2607 4.49113 15.2533 4.33475C15.9449 3.815 16.5261 3.16587 17 2.41887Z" fill="white"/>
</svg>
