<svg width="17" height="18" viewBox="0 0 17 18" fill="none" xmlns="http://www.w3.org/2000/svg">
<path d="M11.6875 0H5.3125C2.37894 0 0 2.51888 0 5.625V12.375C0 15.4811 2.37894 18 5.3125 18H11.6875C14.6211 18 17 15.4811 17 12.375V5.625C17 2.51888 14.6211 0 11.6875 0ZM15.4062 12.375C15.4062 14.5463 13.7381 16.3125 11.6875 16.3125H5.3125C3.26188 16.3125 1.59375 14.5463 1.59375 12.375V5.625C1.59375 3.45375 3.26188 1.6875 5.3125 1.6875H11.6875C13.7381 1.6875 15.4062 3.45375 15.4062 5.625V12.375Z" fill="white"/>
<path d="M8.5 4.5C6.15294 4.5 4.25 6.51487 4.25 9C4.25 11.4851 6.15294 13.5 8.5 13.5C10.8471 13.5 12.75 11.4851 12.75 9C12.75 6.51487 10.8471 4.5 8.5 4.5ZM8.5 11.8125C7.03588 11.8125 5.84375 10.5503 5.84375 9C5.84375 7.44863 7.03588 6.1875 8.5 6.1875C9.96413 6.1875 11.1562 7.44863 11.1562 9C11.1562 10.5503 9.96413 11.8125 8.5 11.8125Z" fill="white"/>
<path d="M13.0687 4.76224C13.3815 4.76224 13.6351 4.49378 13.6351 4.16261C13.6351 3.83145 13.3815 3.56299 13.0687 3.56299C12.756 3.56299 12.5024 3.83145 12.5024 4.16261C12.5024 4.49378 12.756 4.76224 13.0687 4.76224Z" fill="white"/>
</svg>
